# xmcd
#
# Track frame offsets:
#	150
#	10697
#	23037
#	37150
#	54755
#	68032
#	77887
#	88240
#
# Disc length: 1420 seconds
#
# Revision: 0
# Processed by: cddbd v1.5.2PL0 Copyright (c) Steve Scherf et al.
# Submitted via: EasyCDDAExtractor 10.0.2.1
#
DISCID=5a058a08
DTITLE=Michael Bright - A Touch From Jesus
DYEAR=1998
DGENRE=Gospel
TTITLE0=Not Anther Day
TTITLE1=A Touch From Jesus
TTITLE2=Come To Jesus
TTITLE3=You're So Wonderful
TTITLE4=If You Don't Have Jesus
TTITLE5=Glory Train A'Coming
TTITLE6=Miracle Working Jesus
TTITLE7=If Only One
EXTD=
EXTT0=
EXTT1=
EXTT2=
EXTT3=
EXTT4=
EXTT5=
EXTT6=
EXTT7=
PLAYORDER=
